<?xml version="1.0" standalone="no"?>
<!DOCTYPE svg PUBLIC "-//W3C//DTD SVG 20010904//EN"
 "http://www.w3.org/TR/2001/REC-SVG-20010904/DTD/svg10.dtd">
<svg version="1.0" xmlns="http://www.w3.org/2000/svg"
 width="700.000000pt" height="700.000000pt" viewBox="0 0 700.000000 700.000000"
 preserveAspectRatio="xMidYMid meet">
<metadata>
Created by potrace 1.14, written by Peter Selinger 2001-2017
</metadata>
<g transform="translate(0.000000,700.000000) scale(0.100000,-0.100000)"
fill="#000000" stroke="none">
<path d="M3387 6194 c-31 -7 -72 -21 -90 -30 -17 -9 -475 -271 -1016 -582
-875 -504 -992 -574 -1047 -628 -65 -64 -114 -151 -133 -234 -14 -62 -14
-2378 0 -2440 19 -83 68 -170 133 -234 55 -54 173 -125 1040 -625 538 -309
1001 -574 1030 -587 28 -13 84 -29 124 -36 87 -15 187 -1 270 37 30 14 493
278 1030 587 1067 615 1064 614 1126 740 58 119 56 62 56 1338 0 1276 2 1219
-56 1338 -62 126 -62 126 -1104 727 -524 303 -981 565 -1016 583 -116 59 -231
74 -347 46z m278 -459 c48 -17 1587 -883 1691 -952 202 -132 252 -333 124
-497 -21 -28 -61 -68 -89 -89 -46 -36 -1500 -865 -1653 -944 -129 -66 -275
-78 -408 -33 -32 11 -361 191 -731 401 -371 210 -738 418 -816 462 -270 153
-352 253 -341 416 8 108 70 201 188 281 54 37 1542 882 1631 927 83 41 146 53
254 49 60 -2 120 -11 150 -21z m-2087 -1709 c76 -50 1550 -880 1627 -917 85
-41 202 -69 290 -69 73 0 192 24 257 51 51 22 1580 883 1662 936 l40 26 23
-29 c50 -63 68 -114 68 -199 0 -64 -5 -90 -24 -128 -31 -63 -102 -135 -187
-190 -38 -24 -420 -242 -849 -485 -680 -385 -791 -444 -860 -462 -99 -25 -161
-25 -260 0 -68 17 -181 78 -859 462 -430 243 -812 461 -850 485 -216 139 -275
325 -156 498 17 25 33 45 36 45 2 0 21 -11 42 -24z m3903 -648 c65 -76 94
-195 69 -284 -19 -66 -88 -154 -162 -207 -92 -66 -1631 -936 -1708 -966 -55
-21 -81 -25 -175 -25 -94 0 -120 4 -175 25 -76 30 -1616 900 -1708 966 -74 53
-143 141 -162 207 -17 62 -9 151 20 208 30 61 65 95 82 81 26 -21 1614 -917
1663 -938 165 -73 383 -72 547 3 58 27 1617 906 1663 938 25 18 23 18 46 -8z
m-3066 -1128 c462 -262 829 -464 868 -477 129 -45 315 -45 445 0 51 18 1409
777 1694 946 l37 22 30 -41 c107 -147 68 -327 -98 -454 -75 -57 -1638 -943
-1721 -975 -55 -21 -82 -25 -175 -25 -94 0 -120 4 -175 25 -64 25 -1598 889
-1688 951 -198 136 -248 338 -122 490 l31 38 37 -24 c21 -13 397 -227 837
-476z"/>
</g>
</svg>
