<?xml version="1.0" encoding="UTF-8" standalone="no"?>
<svg
   xmlns:dc="http://purl.org/dc/elements/1.1/"
   xmlns:cc="http://creativecommons.org/ns#"
   xmlns:rdf="http://www.w3.org/1999/02/22-rdf-syntax-ns#"
   xmlns:svg="http://www.w3.org/2000/svg"
   xmlns="http://www.w3.org/2000/svg"
   xmlns:sodipodi="http://sodipodi.sourceforge.net/DTD/sodipodi-0.dtd"
   xmlns:inkscape="http://www.inkscape.org/namespaces/inkscape"
   width="900px"
   height="900px"
   viewBox="0 0 900 900"
   version="1.1"
   inkscape:version="1.0.2 (e86c870879, 2021-01-15)"
   sodipodi:docname="logo.svg"
   inkscape:export-filename="/var/home/adrian/Pictures/carbonOS logo/logo_filledbg.png"
   inkscape:export-xdpi="96"
   inkscape:export-ydpi="96">
  <sodipodi:namedview
     pagecolor="#000000"
     bordercolor="#666666"
     borderopacity="1"
     objecttolerance="10"
     gridtolerance="10"
     guidetolerance="10"
     inkscape:pageopacity="0"
     inkscape:pageshadow="2"
     inkscape:window-width="1920"
     inkscape:window-height="1011"
     id="namedview12"
     showgrid="false"
     inkscape:zoom="0.70710678"
     inkscape:cx="289.198"
     inkscape:cy="493.53346"
     inkscape:window-x="0"
     inkscape:window-y="0"
     inkscape:window-maximized="1"
     inkscape:pagecheckerboard="true"
     inkscape:snap-bbox="true"
     inkscape:snap-bbox-midpoints="true"
     inkscape:document-rotation="0"
     showborder="true"
     borderlayer="false"
     inkscape:showpageshadow="false"
     inkscape:current-layer="layer1" />
  <title
     id="title2">carbonOS Logo</title>
  <defs />
  <g
     inkscape:groupmode="layer"
     id="layer1"
     inkscape:label="BG" />
  <g
     inkscape:groupmode="layer"
     id="layer5"
     inkscape:label="Outline"
     style="display:inline;mix-blend-mode:normal">
    <path
       d="m 498.05623,82.232887 c -29.7373,-17.16885 -66.37517,-17.16885 -96.11247,0 L 155.53245,224.49852 c -29.73732,17.16884 -48.05624,48.89817 -48.05624,83.23585 v 284.53128 c 0,34.33767 18.31892,66.067 48.05624,83.23584 l 246.41131,142.26564 c 29.7373,17.16883 66.37517,17.16883 96.11247,0 L 744.46755,675.50149 c 29.73729,-17.16884 48.05623,-48.89817 48.05623,-83.23584 V 307.73437 c 0,-34.33768 -18.31894,-66.06701 -48.05623,-83.23585 z"
       id="Polygon-7"
       stroke="#fafafa"
       stroke-width="64.075"
       style="fill:#000000;fill-opacity:1;stroke:#ffffff;stroke-opacity:1" />
  </g>
  <g
     id="carbonOS-Outline"
     stroke="none"
     stroke-width="1"
     fill="none"
     fill-rule="evenodd" />
  <g
     inkscape:groupmode="layer"
     id="layer6"
     inkscape:label="Inside"
     style="display:inline;mix-blend-mode:normal">
    <g
       id="g1613"
       transform="translate(-1.2866,0.90039223)" />
    <g
       inkscape:groupmode="layer"
       id="layer7"
       inkscape:label="0"
       style="opacity:1;mix-blend-mode:normal">
      <path
         d="m 487.85668,410.83588 c -23.81767,-13.48929 -53.16216,-13.48929 -76.97968,0 l -197.35902,111.7765 c -23.81755,13.48938 -38.48984,31.35702 -38.48984,53.06635 0,21.70932 14.67229,39.57703 38.48984,53.0664 L 410.877,740.5216 c 23.8175,13.48938 53.16201,13.48938 76.97968,0 L 685.21551,628.74513 c 23.81769,-13.48937 38.48986,-31.35708 38.48986,-53.0664 0,-21.70935 -14.67216,-39.57697 -38.48986,-53.06635 z"
         id="Polygon-73-1-2"
         stroke="#fafafa"
         stroke-width="1.04233"
         style="display:inline;mix-blend-mode:normal;fill:#666666;fill-opacity:1;fill-rule:evenodd;stroke:#000000;stroke-width:20.1847;stroke-miterlimit:4;stroke-dasharray:none;stroke-opacity:1"
         sodipodi:nodetypes="cscssccsscc" />
    </g>
    <g
       inkscape:groupmode="layer"
       id="layer8"
       inkscape:label="1"
       style="opacity:1;mix-blend-mode:normal">
      <path
         d="m 489.12315,327.05003 c -23.81767,-13.48934 -53.16219,-13.48934 -76.97971,0 L 214.78446,438.8265 c -23.81755,13.48942 -38.48984,31.35705 -38.48984,53.06636 0,21.70934 14.67229,39.57703 38.48984,53.06638 l 197.35898,111.77647 c 23.81752,13.48945 53.16204,13.48945 76.97971,0 L 686.48198,544.95924 c 23.8177,-13.48935 38.48987,-31.35704 38.48987,-53.06638 0,-21.70931 -14.67217,-39.57694 -38.48987,-53.06636 z"
         id="Polygon-73-1-9"
         stroke="#fafafa"
         stroke-width="1.04233"
         style="display:inline;mix-blend-mode:normal;fill:#999999;fill-opacity:1;fill-rule:evenodd;stroke:#000000;stroke-width:20.1847;stroke-miterlimit:4;stroke-dasharray:none;stroke-opacity:1"
         sodipodi:nodetypes="cscssccsscc" />
    </g>
    <g
       inkscape:groupmode="layer"
       id="layer9"
       inkscape:label="2">
      <path
         d="m 487.85666,243.26423 c -23.81764,-13.48932 -53.16216,-13.48932 -76.9797,0 l -197.359,111.77649 c -23.81754,13.48938 -38.48982,31.35704 -38.48982,53.06634 0,21.70933 14.67228,39.57705 38.48982,53.06642 l 197.359,111.77648 c 23.81752,13.48939 53.16206,13.48939 76.9797,0 L 685.21551,461.17348 c 23.81764,-13.48937 38.48986,-31.35709 38.48986,-53.06642 0,-21.70932 -14.67216,-39.57696 -38.48986,-53.06634 z"
         id="Polygon-73-1-3"
         stroke="#fafafa"
         stroke-width="1.04233"
         style="display:inline;mix-blend-mode:normal;fill:#cccccc;fill-opacity:1;fill-rule:evenodd;stroke:#000000;stroke-width:20.1847;stroke-miterlimit:4;stroke-dasharray:none;stroke-opacity:1"
         sodipodi:nodetypes="cscssccsscc" />
    </g>
    <g
       inkscape:groupmode="layer"
       id="layer10"
       inkscape:label="3">
      <path
         d="m 487.85672,159.47834 c -23.81764,-13.48928 -53.16218,-13.48928 -76.9797,0 l -197.35901,111.7765 c -23.81756,13.48938 -38.48985,31.35706 -38.48985,53.06636 0,21.70932 14.6723,39.57702 38.48985,53.06639 l 197.35901,111.77649 c 23.8175,13.4894 53.16206,13.4894 76.9797,0 L 685.21551,377.38759 c 23.81767,-13.48937 38.48984,-31.35707 38.48984,-53.06639 0,-21.70934 -14.67217,-39.57698 -38.48984,-53.06636 z"
         id="Polygon-73-1"
         stroke="#fafafa"
         stroke-width="1.04233"
         style="display:inline;mix-blend-mode:normal;fill:#ffffff;fill-opacity:1;fill-rule:evenodd;stroke:#000000;stroke-width:20.1847;stroke-miterlimit:4;stroke-dasharray:none;stroke-opacity:1"
         sodipodi:nodetypes="cscssccsscc" />
    </g>
  </g>
  <metadata
     id="metadata850">
    <rdf:RDF>
      <cc:Work
         rdf:about="">
        <dc:title>carbonOS Logo</dc:title>
      </cc:Work>
    </rdf:RDF>
  </metadata>
</svg>
